<svg id="Layer_1" data-name="Layer 1" xmlns="http://www.w3.org/2000/svg" viewBox="0 0 600 600"><defs><style>.cls-1{fill:none;}.cls-2{fill:#0396c7;}.cls-3{fill:#0077b6;}.cls-4{fill:#4fc6e0;}.cls-5{fill:#02b4d6;}.cls-6{fill:#b0e1ee;}.cls-7{fill:#fad920;}</style></defs><rect class="cls-1" width="600" height="600"/><path class="cls-2" d="M250.85,445.4c91.15,0,165-65.15,165-145.51s-73.9-145.5-165-145.5Z" transform="translate(0.13 0.52)"/><path class="cls-3" d="M250.81,188.47c66.64,0,120.66,54.75,120.66,122.3s-54,122.3-120.66,122.3" transform="translate(0.13 0.52)"/><path class="cls-4" d="M206.75,427.94c74.44,0,134.78-54.76,134.78-122.31s-60.34-122.3-134.78-122.3Z" transform="translate(0.13 0.52)"/><path class="cls-5" d="M206.8,232.36c40,0,72.45,34.87,72.45,77.89s-32.44,77.89-72.45,77.89" transform="translate(0.13 0.52)"/><path class="cls-6" d="M172.3,382.46a78.32,78.32,0,0,0,78.32-78.32c0-29.57-18.56-57.93-44.44-70.64a77.07,77.07,0,0,0-33.88-7.68Z" transform="translate(0.13 0.52)"/><path class="cls-7" d="M141.29,275" transform="translate(0.13 0.52)"/></svg>