<svg xmlns="http://www.w3.org/2000/svg" xmlns:xlink="http://www.w3.org/1999/xlink" viewBox="0 0 315.75 265"><defs><style>.cls-1{isolation:isolate;}.cls-2,.cls-6{fill:#42e8e0;}.cls-3,.cls-7{fill:#2fd3c7;}.cls-4{fill:#fff;}.cls-5{fill:#18b2a3;opacity:0.7;}.cls-6,.cls-7,.cls-8{opacity:0.1;}.cls-9{fill:#03002d;opacity:0.4;}.cls-10{fill:url(#_ÂÁ_Ï_ÌÌ_È_ËÂÌÚ_16);}.cls-11,.cls-13,.cls-25{mix-blend-mode:lighten;}.cls-11{fill:url(#_ÂÁ_Ï_ÌÌ_È_ËÂÌÚ_7);}.cls-12{fill:url(#_ÂÁ_Ï_ÌÌ_È_ËÂÌÚ_16-2);}.cls-14{fill:url(#_ÂÁ_Ï_ÌÌ_È_ËÂÌÚ_7-2);}.cls-15{fill:url(#_ÂÁ_Ï_ÌÌ_È_ËÂÌÚ_16-3);}.cls-16{fill:url(#_ÂÁ_Ï_ÌÌ_È_ËÂÌÚ_7-3);}.cls-17{fill:#393091;}.cls-18{fill:#bcbeff;}.cls-19{fill:url(#_ÂÁ_Ï_ÌÌ_È_ËÂÌÚ_16-4);}.cls-20{fill:url(#_ÂÁ_Ï_ÌÌ_È_ËÂÌÚ_7-4);}.cls-21{fill:#453c9e;}.cls-22{fill:url(#_ÂÁ_Ï_ÌÌ_È_ËÂÌÚ_16-5);}.cls-23{fill:url(#_ÂÁ_Ï_ÌÌ_È_ËÂÌÚ_7-5);}.cls-24{fill:url(#_ÂÁ_Ï_ÌÌ_È_ËÂÌÚ_16-6);}.cls-25{fill:url(#_ÂÁ_Ï_ÌÌ_È_ËÂÌÚ_7-6);}</style><radialGradient id="_ÂÁ_Ï_ÌÌ_È_ËÂÌÚ_16" cx="-1287.77" cy="-2513.6" r="20.63" gradientTransform="matrix(-0.5, 0.77, -1.26, -0.83, -3560.87, -1000.97)" gradientUnits="userSpaceOnUse"><stop offset="0" stop-color="#c0bff6"/><stop offset="1" stop-color="#393091"/></radialGradient><linearGradient id="_ÂÁ_Ï_ÌÌ_È_ËÂÌÚ_7" x1="-2719.17" y1="1603.87" x2="-2728.83" y2="1616.77" gradientTransform="matrix(-0.5, 0.77, -0.96, -0.63, 423.12, 3188.85)" gradientUnits="userSpaceOnUse"><stop offset="0" stop-color="#42e8e0"/><stop offset="0" stop-color="#42e6df"/><stop offset="0.14" stop-color="#40b6cb"/><stop offset="0.27" stop-color="#3e8db9"/><stop offset="0.41" stop-color="#3c6baa"/><stop offset="0.55" stop-color="#3b519f"/><stop offset="0.69" stop-color="#3a3f97"/><stop offset="0.84" stop-color="#393493"/><stop offset="1" stop-color="#393091"/></linearGradient><radialGradient id="_ÂÁ_Ï_ÌÌ_È_ËÂÌÚ_16-2" cx="-104.64" cy="-266.3" r="61.6" gradientTransform="matrix(0.7, 0.71, -0.71, 0.7, 225.45, 360.94)" xlink:href="#_ÂÁ_Ï_ÌÌ_È_ËÂÌÚ_16"/><linearGradient id="_ÂÁ_Ï_ÌÌ_È_ËÂÌÚ_7-2" x1="-342.43" y1="379.65" x2="-321.08" y2="379.65" gradientTransform="translate(137.81 -384.9) rotate(-57.51)" xlink:href="#_ÂÁ_Ï_ÌÌ_È_ËÂÌÚ_7"/><radialGradient id="_ÂÁ_Ï_ÌÌ_È_ËÂÌÚ_16-3" cx="904.73" cy="219.82" r="60.86" gradientTransform="translate(-382.26 -120.22) scale(0.78 1.06)" xlink:href="#_ÂÁ_Ï_ÌÌ_È_ËÂÌÚ_16"/><linearGradient id="_ÂÁ_Ï_ÌÌ_È_ËÂÌÚ_7-3" x1="883.83" y1="260.54" x2="883.83" y2="199.71" gradientTransform="translate(-382.26 -120.22) scale(0.78 1.06)" xlink:href="#_ÂÁ_Ï_ÌÌ_È_ËÂÌÚ_7"/><radialGradient id="_ÂÁ_Ï_ÌÌ_È_ËÂÌÚ_16-4" cx="173.25" cy="40.81" r="47.5" gradientTransform="matrix(1, 0, 0, 1, 0, 0)" xlink:href="#_ÂÁ_Ï_ÌÌ_È_ËÂÌÚ_16"/><linearGradient id="_ÂÁ_Ï_ÌÌ_È_ËÂÌÚ_7-4" x1="151.81" y1="72.8" x2="159.63" y2="17.14" gradientTransform="matrix(1, 0, 0, 1, 0, 0)" xlink:href="#_ÂÁ_Ï_ÌÌ_È_ËÂÌÚ_7"/><radialGradient id="_ÂÁ_Ï_ÌÌ_È_ËÂÌÚ_16-5" cx="-84.03" cy="-225.5" r="22.26" gradientTransform="matrix(0.81, 0.59, -0.59, 0.81, 279.84, 343.65)" xlink:href="#_ÂÁ_Ï_ÌÌ_È_ËÂÌÚ_16"/><linearGradient id="_ÂÁ_Ï_ÌÌ_È_ËÂÌÚ_7-5" x1="-96.13" y1="-209.61" x2="-81.63" y2="-225.27" gradientTransform="matrix(0.81, 0.59, -0.59, 0.81, 279.84, 343.65)" xlink:href="#_ÂÁ_Ï_ÌÌ_È_ËÂÌÚ_7"/><radialGradient id="_ÂÁ_Ï_ÌÌ_È_ËÂÌÚ_16-6" cx="414.87" cy="-1921.71" r="20.63" gradientTransform="matrix(0.91, 0.11, -0.18, 1.5, -365.6, 2982.1)" xlink:href="#_ÂÁ_Ï_ÌÌ_È_ËÂÌÚ_16"/><linearGradient id="_ÂÁ_Ï_ÌÌ_È_ËÂÌÚ_7-6" x1="189.64" y1="235.89" x2="205.75" y2="235.89" gradientTransform="matrix(0.91, 0.11, -0.14, 1.14, 198.07, -137.21)" xlink:href="#_ÂÁ_Ï_ÌÌ_È_ËÂÌÚ_7"/></defs><g class="cls-1"><g id="_ÎÓÈ_1" data-name="—ÎÓÈ_1"><polygon class="cls-2" points="153 135.7 127.75 121.12 127.75 150.28 153 164.86 178.25 150.28 178.25 121.12 153 135.7"/><polygon class="cls-2" points="153 164.86 127.75 150.28 127.75 121.12 153 135.7 153 164.86"/><polygon class="cls-3" points="178.25 150.28 153 164.86 153 135.7 178.25 121.12 178.25 150.28"/><polygon class="cls-2" points="153 135.7 127.75 121.12 153 106.54 178.25 121.12 153 135.7"/><polygon class="cls-4" points="153 135.7 128.84 121.75 127.75 122.39 153 136.97 178.25 122.39 177.15 121.75 153 135.7"/><polygon class="cls-2" points="185.8 154.42 160.55 139.84 160.55 168.99 185.8 183.57 211.05 168.99 211.05 139.84 185.8 154.42"/><polygon class="cls-2" points="185.8 183.57 160.55 168.99 160.55 139.84 185.8 154.42 185.8 183.57"/><polygon class="cls-3" points="211.05 168.99 185.8 183.57 185.8 154.42 211.05 139.84 211.05 168.99"/><polygon class="cls-2" points="185.8 154.42 160.55 139.84 185.8 125.26 211.05 139.84 185.8 154.42"/><polygon class="cls-4" points="185.8 154.42 161.64 140.47 160.55 141.1 185.8 155.68 211.05 141.1 209.95 140.47 185.8 154.42"/><polygon class="cls-2" points="218.6 173.13 193.35 158.55 193.35 187.71 218.6 202.29 243.85 187.71 243.85 158.55 218.6 173.13"/><polygon class="cls-2" points="218.6 202.29 193.35 187.71 193.35 158.55 218.6 173.13 218.6 202.29"/><polygon class="cls-3" points="243.85 187.71 218.6 202.29 218.6 173.13 243.85 158.55 243.85 187.71"/><polygon class="cls-2" points="218.6 173.13 193.35 158.55 218.6 143.97 243.85 158.55 218.6 173.13"/><polygon class="cls-4" points="218.6 173.13 194.44 159.18 193.35 159.82 218.6 174.4 243.85 159.82 243.85 158.55 218.6 173.13"/><polygon class="cls-2" points="120.2 155.68 94.95 141.1 94.95 170.26 120.2 184.84 145.45 170.26 145.45 141.1 120.2 155.68"/><polygon class="cls-2" points="120.2 184.84 94.95 170.26 94.95 141.1 120.2 155.68 120.2 184.84"/><polygon class="cls-3" points="145.45 170.26 120.2 184.84 120.2 155.68 145.45 141.1 145.45 170.26"/><polygon class="cls-2" points="120.2 155.68 94.95 141.1 120.2 126.52 145.45 141.1 120.2 155.68"/><polygon class="cls-4" points="120.2 155.68 96.04 141.73 94.95 142.37 120.2 156.94 145.45 142.37 144.35 141.74 120.2 155.68"/><polygon class="cls-2" points="153 174.4 127.75 159.82 127.75 188.97 153 203.55 178.25 188.97 178.25 159.82 153 174.4"/><polygon class="cls-2" points="153 203.55 127.75 188.97 127.75 159.82 153 174.4 153 203.55"/><polygon class="cls-3" points="178.25 188.97 153 203.55 153 174.4 178.25 159.82 178.25 188.97"/><polygon class="cls-2" points="153 174.4 127.75 159.82 153 145.24 178.25 159.82 153 174.4"/><polygon class="cls-4" points="153 174.4 128.84 160.45 127.75 161.08 153 175.66 178.25 161.08 177.15 160.45 153 174.4"/><polygon class="cls-2" points="185.8 193.11 160.55 178.53 160.55 207.69 185.8 222.27 211.05 207.69 211.05 178.53 185.8 193.11"/><polygon class="cls-2" points="185.8 222.27 160.55 207.69 160.55 178.53 185.8 193.11 185.8 222.27"/><polygon class="cls-3" points="211.05 207.69 185.8 222.27 185.8 193.11 211.05 178.53 211.05 207.69"/><polygon class="cls-2" points="185.8 193.11 160.55 178.53 185.8 163.95 211.05 178.53 185.8 193.11"/><polygon class="cls-4" points="185.8 193.11 161.64 179.16 160.55 179.8 185.8 194.37 211.05 179.8 211.05 178.53 185.8 193.11"/><polygon class="cls-2" points="87.4 175.66 62.15 161.08 62.15 190.24 87.4 204.82 112.65 190.24 112.65 161.08 87.4 175.66"/><polygon class="cls-2" points="87.4 204.82 62.15 190.24 62.15 161.08 87.4 175.66 87.4 204.82"/><polygon class="cls-3" points="112.65 190.24 87.4 204.82 87.4 175.66 112.65 161.08 112.65 190.24"/><polygon class="cls-2" points="87.4 175.66 62.15 161.08 87.4 146.5 112.65 161.08 87.4 175.66"/><polygon class="cls-4" points="87.4 175.66 62.15 161.08 62.15 162.35 87.4 176.93 112.65 162.35 111.55 161.71 87.4 175.66"/><polygon class="cls-2" points="120.2 194.38 94.95 179.8 94.95 208.95 120.2 223.53 145.45 208.95 145.45 179.8 120.2 194.38"/><polygon class="cls-2" points="120.2 223.53 94.95 208.95 94.95 179.8 120.2 194.38 120.2 223.53"/><polygon class="cls-3" points="145.45 208.95 120.2 223.53 120.2 194.38 145.45 179.8 145.45 208.95"/><polygon class="cls-2" points="120.2 194.38 94.95 179.8 120.2 165.22 145.45 179.8 120.2 194.38"/><polygon class="cls-4" points="120.2 194.38 94.95 179.8 94.95 181.06 120.2 195.64 145.45 181.06 144.35 180.43 120.2 194.38"/><polygon class="cls-2" points="153 213.09 127.75 198.51 127.75 227.67 153 242.25 178.25 227.67 178.25 198.51 153 213.09"/><polygon class="cls-2" points="153 242.25 127.75 227.67 127.75 198.51 153 213.09 153 242.25"/><polygon class="cls-3" points="178.25 227.67 153 242.25 153 213.09 178.25 198.51 178.25 227.67"/><polygon class="cls-2" points="153 213.09 127.75 198.51 153 183.93 178.25 198.51 153 213.09"/><polygon class="cls-4" points="153 213.09 127.75 198.51 127.75 199.78 153 214.35 178.25 199.78 178.25 198.51 153 213.09"/><polygon class="cls-2" points="153 97.01 127.75 82.43 127.75 111.58 153 126.16 178.25 111.58 178.25 82.43 153 97.01"/><polygon class="cls-2" points="153 126.16 127.75 111.58 127.75 82.43 153 97.01 153 126.16"/><polygon class="cls-3" points="178.25 111.58 153 126.16 153 97.01 178.25 82.43 178.25 111.58"/><polygon class="cls-2" points="153 97.01 127.75 82.43 153 67.85 178.25 82.43 153 97.01"/><polygon class="cls-4" points="153 97.01 128.84 83.06 127.75 83.69 153 98.27 178.25 83.69 177.15 83.06 153 97.01"/><polygon class="cls-5" points="153 208.34 135.77 198.4 153 188.45 170.22 198.4 153 208.34"/><polygon class="cls-5" points="120.2 189.63 102.97 179.68 120.2 169.74 137.42 179.68 120.2 189.63"/><polygon class="cls-5" points="185.8 188.36 168.57 178.42 185.8 168.47 203.02 178.42 185.8 188.36"/><polygon class="cls-5" points="218.66 168.61 201.44 158.67 218.66 148.72 235.88 158.67 218.66 168.61"/><polygon class="cls-5" points="87.4 170.91 70.17 160.97 87.4 151.02 104.62 160.97 87.4 170.91"/><polygon class="cls-2" points="185.8 115.72 160.55 101.14 160.55 130.3 185.8 144.88 211.05 130.3 211.05 101.14 185.8 115.72"/><polygon class="cls-2" points="185.8 144.88 160.55 130.3 160.55 101.14 185.8 115.72 185.8 144.88"/><polygon class="cls-3" points="211.05 130.3 185.8 144.88 185.8 115.72 211.05 101.14 211.05 130.3"/><polygon class="cls-2" points="185.8 115.72 160.55 101.14 185.8 86.56 211.05 101.14 185.8 115.72"/><polygon class="cls-4" points="185.8 115.72 161.64 101.78 160.55 102.41 185.8 116.99 211.05 102.41 209.95 101.78 185.8 115.72"/><polygon class="cls-2" points="218.6 134.44 193.35 119.86 193.35 149.01 218.6 163.59 243.85 149.01 243.85 119.86 218.6 134.44"/><polygon class="cls-2" points="218.6 163.59 193.35 149.01 193.35 119.86 218.6 134.44 218.6 163.59"/><polygon class="cls-3" points="243.85 149.01 218.6 163.59 218.6 134.44 243.85 119.86 243.85 149.01"/><polygon class="cls-2" points="218.6 134.44 193.35 119.86 218.6 105.28 243.85 119.86 218.6 134.44"/><polygon class="cls-4" points="218.6 134.44 194.44 120.49 193.35 121.12 218.6 135.7 243.85 121.12 243.85 119.86 218.6 134.44"/><polygon class="cls-2" points="120.2 116.99 94.95 102.41 94.95 131.56 120.2 146.14 145.45 131.56 145.45 102.41 120.2 116.99"/><polygon class="cls-2" points="120.2 146.14 94.95 131.56 94.95 102.41 120.2 116.99 120.2 146.14"/><polygon class="cls-3" points="145.45 131.56 120.2 146.14 120.2 116.99 145.45 102.41 145.45 131.56"/><polygon class="cls-2" points="120.2 116.99 94.95 102.41 120.2 87.83 145.45 102.41 120.2 116.99"/><polygon class="cls-4" points="120.2 116.99 96.04 103.04 94.95 103.67 120.2 118.25 145.45 103.67 144.35 103.04 120.2 116.99"/><polygon class="cls-2" points="153 135.7 127.75 121.12 127.75 150.28 153 164.86 178.25 150.28 178.25 121.12 153 135.7"/><polygon class="cls-2" points="153 164.86 127.75 150.28 127.75 121.12 153 135.7 153 164.86"/><polygon class="cls-3" points="178.25 150.28 153 164.86 153 135.7 178.25 121.12 178.25 150.28"/><polygon class="cls-2" points="153 135.7 127.75 121.12 153 106.54 178.25 121.12 153 135.7"/><polygon class="cls-4" points="153 135.7 128.84 121.75 127.75 122.39 153 136.97 178.25 122.39 177.15 121.75 153 135.7"/><polygon class="cls-2" points="185.8 154.42 160.55 139.84 160.55 168.99 185.8 183.57 211.05 168.99 211.05 139.84 185.8 154.42"/><polygon class="cls-2" points="185.8 183.57 160.55 168.99 160.55 139.84 185.8 154.42 185.8 183.57"/><polygon class="cls-3" points="211.05 168.99 185.8 183.57 185.8 154.42 211.05 139.84 211.05 168.99"/><polygon class="cls-2" points="185.8 154.42 160.55 139.84 185.8 125.26 211.05 139.84 185.8 154.42"/><polygon class="cls-4" points="185.8 154.42 161.64 140.47 160.55 141.1 185.8 155.68 211.05 141.1 211.05 139.84 185.8 154.42"/><polygon class="cls-2" points="87.4 136.97 62.15 122.39 62.15 151.54 87.4 166.12 112.65 151.54 112.65 122.39 87.4 136.97"/><polygon class="cls-2" points="87.4 166.12 62.15 151.54 62.15 122.39 87.4 136.97 87.4 166.12"/><polygon class="cls-3" points="112.65 151.54 87.4 166.12 87.4 136.97 112.65 122.39 112.65 151.54"/><polygon class="cls-2" points="87.4 136.97 62.15 122.39 87.4 107.81 112.65 122.39 87.4 136.97"/><polygon class="cls-4" points="87.4 136.97 63.24 123.02 62.15 123.65 87.4 138.23 112.65 123.65 111.55 123.02 87.4 136.97"/><polygon class="cls-2" points="120.2 155.68 94.95 141.1 94.95 170.26 120.2 184.84 145.45 170.26 145.45 141.1 120.2 155.68"/><polygon class="cls-2" points="120.2 184.84 94.95 170.26 94.95 141.1 120.2 155.68 120.2 184.84"/><polygon class="cls-3" points="145.45 170.26 120.2 184.84 120.2 155.68 145.45 141.1 145.45 170.26"/><polygon class="cls-2" points="120.2 155.68 94.95 141.1 120.2 126.52 145.45 141.1 120.2 155.68"/><polygon class="cls-4" points="120.2 155.68 94.95 141.1 94.95 142.37 120.2 156.94 145.45 142.37 144.35 141.74 120.2 155.68"/><polygon class="cls-2" points="153 174.4 127.75 159.82 127.75 188.97 153 203.55 178.25 188.97 178.25 159.82 153 174.4"/><polygon class="cls-2" points="153 203.55 127.75 188.97 127.75 159.82 153 174.4 153 203.55"/><polygon class="cls-3" points="178.25 188.97 153 203.55 153 174.4 178.25 159.82 178.25 188.97"/><polygon class="cls-2" points="153 174.4 127.75 159.82 153 145.24 178.25 159.82 153 174.4"/><polygon class="cls-4" points="153 174.4 127.75 159.82 127.75 161.08 153 175.66 178.25 161.08 178.25 159.82 153 174.4"/><polygon class="cls-5" points="218.66 130.09 201.44 120.14 218.66 110.2 235.88 120.14 218.66 130.09"/><polygon class="cls-5" points="87.4 132.39 70.17 122.44 87.4 112.5 104.62 122.44 87.4 132.39"/><polygon class="cls-2" points="153 58.31 127.75 43.73 127.75 72.89 153 87.47 178.25 72.89 178.25 43.73 153 58.31"/><polygon class="cls-2" points="153 87.47 127.75 72.89 127.75 43.73 153 58.31 153 87.47"/><polygon class="cls-3" points="178.25 72.89 153 87.47 153 58.31 178.25 43.73 178.25 72.89"/><polygon class="cls-2" points="153 58.31 127.75 43.73 153 29.16 178.25 43.73 153 58.31"/><polygon class="cls-4" points="153 58.31 127.75 43.73 127.75 45 153 59.58 178.25 45 178.25 43.73 153 58.31"/><polygon class="cls-2" points="185.8 77.03 160.55 62.45 160.55 91.61 185.8 106.19 211.05 91.61 211.05 62.45 185.8 77.03"/><polygon class="cls-2" points="185.8 106.19 160.55 91.61 160.55 62.45 185.8 77.03 185.8 106.19"/><polygon class="cls-3" points="211.05 91.61 185.8 106.19 185.8 77.03 211.05 62.45 211.05 91.61"/><polygon class="cls-2" points="185.8 77.03 160.55 62.45 185.8 47.87 211.05 62.45 185.8 77.03"/><polygon class="cls-4" points="185.8 77.03 160.55 62.45 160.55 63.71 185.8 78.29 211.05 63.72 211.05 62.45 185.8 77.03"/><polygon class="cls-2" points="218.6 95.74 193.35 81.16 193.35 110.32 218.6 124.9 243.85 110.32 243.85 81.16 218.6 95.74"/><polygon class="cls-2" points="218.6 124.9 193.35 110.32 193.35 81.16 218.6 95.74 218.6 124.9"/><polygon class="cls-3" points="243.85 110.32 218.6 124.9 218.6 95.74 243.85 81.16 243.85 110.32"/><polygon class="cls-2" points="218.6 95.74 193.35 81.16 218.6 66.59 243.85 81.17 218.6 95.74"/><polygon class="cls-4" points="218.6 95.74 193.35 81.16 193.35 82.43 218.6 97.01 243.85 82.43 243.85 81.16 218.6 95.74"/><polygon class="cls-2" points="120.2 78.29 94.95 63.71 94.95 92.87 120.2 107.45 145.45 92.87 145.45 63.71 120.2 78.29"/><polygon class="cls-2" points="120.2 107.45 94.95 92.87 94.95 63.71 120.2 78.29 120.2 107.45"/><polygon class="cls-3" points="145.45 92.87 120.2 107.45 120.2 78.29 145.45 63.71 145.45 92.87"/><polygon class="cls-2" points="120.2 78.29 94.95 63.71 120.2 49.14 145.45 63.72 120.2 78.29"/><polygon class="cls-4" points="120.2 78.29 94.95 63.71 94.95 64.98 120.2 79.56 145.45 64.98 145.45 63.71 120.2 78.29"/><polygon class="cls-2" points="87.4 98.27 62.15 83.69 62.15 112.85 87.4 127.43 112.65 112.85 112.65 83.69 87.4 98.27"/><polygon class="cls-2" points="87.4 127.43 62.15 112.85 62.15 83.69 87.4 98.27 87.4 127.43"/><polygon class="cls-3" points="112.65 112.85 87.4 127.43 87.4 98.27 112.65 83.69 112.65 112.85"/><polygon class="cls-2" points="87.4 98.27 62.15 83.69 87.4 69.12 112.65 83.69 87.4 98.27"/><polygon class="cls-4" points="87.4 98.27 62.15 83.69 62.15 84.96 87.4 99.54 112.65 84.96 112.65 83.69 87.4 98.27"/><polygon class="cls-6" points="295.31 193.11 274.87 181.31 274.87 204.91 295.31 216.71 315.75 204.91 315.75 181.31 295.31 193.11"/><polygon class="cls-6" points="295.31 216.71 274.87 204.91 274.87 181.31 295.31 193.11 295.31 216.71"/><polygon class="cls-7" points="315.75 204.91 295.31 216.71 295.31 193.11 315.75 181.31 315.75 204.91"/><polygon class="cls-6" points="295.31 193.11 274.87 181.31 295.31 169.51 315.75 181.31 295.31 193.11"/><g class="cls-8"><polygon class="cls-4" points="295.31 193.11 275.75 181.82 274.87 182.33 295.31 194.13 315.75 182.33 314.86 181.82 295.31 193.11"/></g><polygon class="cls-9" points="295.31 182.71 274.87 170.91 295.31 159.11 315.75 170.91 295.31 182.71"/><polygon class="cls-2" points="295.31 138.23 274.87 126.43 274.87 150.03 295.31 161.83 315.75 150.03 315.75 126.43 295.31 138.23"/><polygon class="cls-2" points="295.31 161.83 274.87 150.03 274.87 126.43 295.31 138.23 295.31 161.83"/><polygon class="cls-3" points="315.75 150.03 295.31 161.83 295.31 138.23 315.75 126.43 315.75 150.03"/><polygon class="cls-2" points="295.31 138.23 274.87 126.43 295.31 114.63 315.75 126.43 295.31 138.23"/><polygon class="cls-4" points="295.31 138.23 275.75 126.94 274.87 127.45 295.31 139.25 315.75 127.45 314.86 126.94 295.31 138.23"/><polygon class="cls-2" points="19.71 51.27 5.92 43.31 5.92 59.23 19.71 67.19 33.49 59.23 33.49 43.31 19.71 51.27"/><polygon class="cls-2" points="19.71 67.19 5.92 59.23 5.92 43.31 19.71 51.27 19.71 67.19"/><polygon class="cls-3" points="33.49 59.23 19.71 67.19 19.71 51.27 33.49 43.31 33.49 59.23"/><polygon class="cls-2" points="19.71 51.27 5.92 43.31 19.71 35.35 33.49 43.31 19.71 51.27"/><polygon class="cls-9" points="19.71 94.53 5.92 86.56 19.71 78.61 33.49 86.56 19.71 94.53"/><polygon class="cls-4" points="19.71 51.27 6.52 43.65 5.92 44 19.71 51.96 33.49 44 32.9 43.65 19.71 51.27"/><polygon class="cls-6" points="19.71 116.99 5.92 109.03 5.92 124.95 19.71 132.91 33.49 124.95 33.49 109.03 19.71 116.99"/><polygon class="cls-6" points="19.71 132.91 5.92 124.95 5.92 109.03 19.71 116.99 19.71 132.91"/><polygon class="cls-7" points="33.49 124.95 19.71 132.91 19.71 116.99 33.49 109.03 33.49 124.95"/><polygon class="cls-6" points="19.71 116.99 5.92 109.03 19.71 101.07 33.49 109.03 19.71 116.99"/><g class="cls-8"><polygon class="cls-4" points="19.71 116.99 6.52 109.37 5.92 109.72 19.71 117.68 33.49 109.72 32.9 109.37 19.71 116.99"/></g><polygon class="cls-6" points="19.71 242.25 0 230.87 0 253.62 19.71 265 39.42 253.62 39.42 230.87 19.71 242.25"/><polygon class="cls-6" points="19.71 265 0 253.62 0 230.87 19.71 242.25 19.71 265"/><polygon class="cls-7" points="39.42 253.62 19.71 265 19.71 242.25 39.42 230.87 39.42 253.62"/><polygon class="cls-6" points="19.71 242.25 0 230.87 19.71 219.49 39.41 230.87 19.71 242.25"/><g class="cls-8"><polygon class="cls-4" points="19.71 242.25 0.85 231.36 0 231.85 19.71 243.23 39.41 231.85 38.56 231.36 19.71 242.25"/></g><polygon class="cls-9" points="19.71 234.91 0 223.53 19.71 212.15 39.41 223.53 19.71 234.91"/><polygon class="cls-2" points="19.71 199.32 0 187.94 0 210.7 19.71 222.08 39.42 210.7 39.42 187.94 19.71 199.32"/><polygon class="cls-2" points="19.71 222.08 0 210.7 0 187.94 19.71 199.32 19.71 222.08"/><polygon class="cls-3" points="39.42 210.7 19.71 222.08 19.71 199.32 39.42 187.94 39.42 210.7"/><polygon class="cls-2" points="19.71 199.32 0 187.94 19.71 176.56 39.41 187.94 19.71 199.32"/><polygon class="cls-4" points="19.71 199.32 0.85 188.44 0 188.93 19.71 200.31 39.41 188.93 38.56 188.44 19.71 199.32"/><path class="cls-10" d="M246.62,91c-4.27-2.8-10.87-11.1-8.62-14.51s12.47-.65,16.74,2.15,5.91,7.84,3.67,11.26S250.89,93.81,246.62,91Z" transform="translate(-150.83 -31.56)"/><path class="cls-11" d="M246.62,91c-4.27-2.8-10.87-11.1-8.62-14.51s12.47-.65,16.74,2.15,5.91,7.84,3.67,11.26S250.89,93.81,246.62,91Z" transform="translate(-150.83 -31.56)"/><path class="cls-3" d="M275.08,98.86a2.15,2.15,0,0,1-.74-.14l-17.61-7A2,2,0,0,1,258.2,88l17.62,7a2,2,0,0,1-.74,3.86Z" transform="translate(-150.83 -31.56)"/><path class="cls-3" d="M347.8,144.93a2,2,0,0,1-1.85-1.25L335,116.5a2,2,0,1,1,3.7-1.5l11,27.18a2,2,0,0,1-1.85,2.75Z" transform="translate(-150.83 -31.56)"/><circle class="cls-12" cx="279.78" cy="98.85" r="10.67" transform="translate(-158.13 142.33) rotate(-34.11)"/><g class="cls-13"><path class="cls-14" d="M285.52,89.85a10.67,10.67,0,1,1-14.74,3.27A10.69,10.69,0,0,1,285.52,89.85Z" transform="translate(-150.83 -31.56)"/></g><path class="cls-15" d="M333,118.23c0,20.72-12.33,37.51-27.55,37.51S277.9,139,277.9,118.23s12.33-26.92,27.55-26.92S333,97.52,333,118.23Z" transform="translate(-150.83 -31.56)"/><g class="cls-13"><path class="cls-16" d="M333,118.23c0,20.72-12.33,37.51-27.55,37.51S277.9,139,277.9,118.23s12.33-26.92,27.55-26.92S333,97.52,333,118.23Z" transform="translate(-150.83 -31.56)"/></g><path class="cls-17" d="M318.75,110.12c-7.35,4.24-19.25,4.24-26.6,0s-7.34-11.11,0-15.35,19.25-4.24,26.6,0S326.09,105.88,318.75,110.12Z" transform="translate(-150.83 -31.56)"/><path class="cls-2" d="M292.15,97.66c7.35-4.24,19.25-4.24,26.6,0,3,1.75,4.81,4,5.33,6.23.75-3.24-1-6.63-5.33-9.12-7.35-4.24-19.25-4.24-26.6,0-4.31,2.49-6.08,5.88-5.33,9.12C287.34,101.61,289.12,99.41,292.15,97.66Z" transform="translate(-150.83 -31.56)"/><path class="cls-18" d="M297.25,62.33a17.53,17.53,0,0,1-7.93,13.74c-4.39,2.53-7.94.48-7.94-4.58a17.52,17.52,0,0,1,7.94-13.74C293.7,55.23,297.25,57.28,297.25,62.33Z" transform="translate(-150.83 -31.56)"/><circle class="cls-19" cx="155.72" cy="44.97" r="28.1"/><g class="cls-13"><circle class="cls-20" cx="155.72" cy="44.97" r="28.1"/></g><path class="cls-17" d="M297.78,89.84c-.72,5.53-4.89,7.26-9.32,3.88S281,83.11,281.74,77.58s4.89-7.26,9.32-3.87S298.49,84.32,297.78,89.84Z" transform="translate(-150.83 -31.56)"/><path class="cls-2" d="M294.12,85.06c-.26,2-1.78,2.64-3.39,1.41a7.06,7.06,0,0,1-2.44-5.87c.26-2,1.78-2.64,3.39-1.41A7,7,0,0,1,294.12,85.06Z" transform="translate(-150.83 -31.56)"/><path class="cls-21" d="M290.59,92.91c-4.43-3.38-7.44-10.6-6.72-16.13A6.82,6.82,0,0,1,286.25,72c-2.31.22-4.06,2.18-4.51,5.58-.71,5.53,2.29,12.75,6.72,16.14,2.62,2,5.15,2.21,6.93.9A7,7,0,0,1,290.59,92.91Z" transform="translate(-150.83 -31.56)"/><path class="cls-2" d="M288.84,93.54c-4.43-3.38-7.43-10.61-6.72-16.14.34-2.55,1.41-4.3,2.91-5.1-1.7.7-2.93,2.51-3.29,5.28-.71,5.53,2.29,12.75,6.72,16.14,2.38,1.82,4.68,2.15,6.41,1.22C293.19,95.64,291.05,95.23,288.84,93.54Z" transform="translate(-150.83 -31.56)"/><circle class="cls-22" cx="336.8" cy="115.75" r="10.67" transform="translate(-168.14 122.03) rotate(-25.07)"/><g class="cls-13"><circle class="cls-23" cx="336.8" cy="115.75" r="10.67" transform="translate(-168.14 122.03) rotate(-25.07)"/></g><path class="cls-24" d="M353.82,151.11c-.6,5.07-5.08,14.67-9.14,14.19s-6.14-10.87-5.54-15.94,4.38-8.79,8.44-8.31S354.43,146,353.82,151.11Z" transform="translate(-150.83 -31.56)"/><path class="cls-25" d="M353.82,151.11c-.6,5.07-5.08,14.67-9.14,14.19s-6.14-10.87-5.54-15.94,4.38-8.79,8.44-8.31S354.43,146,353.82,151.11Z" transform="translate(-150.83 -31.56)"/><polygon class="cls-2" points="87.4 29.16 62.15 14.58 62.15 43.73 87.4 58.31 112.65 43.73 112.65 14.58 87.4 29.16"/><polygon class="cls-2" points="87.4 58.31 62.15 43.73 62.15 14.58 87.4 29.16 87.4 58.31"/><polygon class="cls-3" points="112.65 43.73 87.4 58.31 87.4 29.16 112.65 14.58 112.65 43.73"/><polygon class="cls-2" points="87.4 29.16 62.15 14.58 87.4 0 112.65 14.58 87.4 29.16"/><polygon class="cls-4" points="87.4 29.16 62.15 14.58 62.15 15.84 87.4 30.42 112.65 15.84 112.65 14.58 87.4 29.16"/></g></g></svg>